#!OML:ASF E:\motion texture\Top Level 1\Subject 1\Session 1\male.ASF
:FULLY-SPECIFIED
:DEGREES
246
root 10.3194 16.7776 -2.72925 234.863 -53.5237 -185.814
lowerback 39.2058 1.572 10.6985
upperback 7.38755 5.53218 9.41121
thorax -10.7441 1.45018 2.49611
lowerneck -16.1095 -6.25952 -9.20225
upperneck -18.1136 -7.56744 11.9578
head -2.04539 -4.3948 5.01001
rclavicle 3.18055e-015 3.63279e-014
rhumerus 25.6075 -10.764 -72.6602
rradius 37.7442
rwrist -31.6849
rhand 8.54133 -33.3589
rfingers 7.12502
rthumb 33.7416 -60.1996
lclavicle 3.18055e-015 3.63279e-014
lhumerus 20.0919 -13.6683 92.7833
lradius 36.8054
lwrist -2.35759
lhand -17.8397 32.1253
lfingers 7.12502
lthumb 8.42504 61.9373
rfemur -90.4479 -4.42717 17.968
rtibia 57.4559
rfoot -11.6357 -4.77329
rtoes 15.5439
lfemur -47.9 7.08671 -19.0568
ltibia 64.9844
lfoot -11.5294 -0.544066
ltoes -21.3063
247
root 10.1867 16.8514 -2.76783 234.44 -53.6052 -185.579
lowerback 39.0041 1.48354 10.7604
upperback 7.35302 5.42835 9.39369
thorax -10.7044 1.40818 2.48968
lowerneck -16.0735 -6.11966 -9.12817
upperneck -18.2821 -7.42623 11.759
head -2.13121 -4.33717 4.95306
rclavicle 1.27222e-014 1.18028e-013
rhumerus 23.2198 -11.0538 -72.4477
rradius 37.5428
rwrist -31.3045
rhand 8.27618 -33.8713
rfingers 7.12502
rthumb 33.4896 -60.7669
lclavicle 1.27222e-014 1.18028e-013
lhumerus 18.58 -13.1712 92.6172
lradius 36.8551
lwrist -3.18167
lhand -17.8393 31.7675
lfingers 7.12502
lthumb 8.42546 61.5794
rfemur -89.1639 -4.36454 17.7426
rtibia 56.6383
rfoot -11.8452 -4.90593
rtoes 14.8338
lfemur -48.5779 7.13127 -19.0128
ltibia 64.9793
lfoot -11.7634 -0.22033
ltoes -21.1763
248
root 10.0542 16.9234 -2.80527 233.998 -53.7074 -185.366
lowerback 38.7852 1.39048 10.8363
upperback 7.31621 5.32266 9.38127
thorax -10.66 1.36533 2.48238
lowerneck -16.0367 -5.97837 -9.05386
upperneck -18.4625 -7.28474 11.5549
head -2.22082 -4.27973 4.89466
rclavicle 6.04305e-014 -1.1281e-014
rhumerus 20.8218 -11.4059 -72.2171
rradius 37.2826
rwrist -30.8918
rhand 7.99507 -34.3429
rfingers 7.12502
rthumb 33.2223 -61.2959
lclavicle 6.04305e-014 -1.1281e-014
lhumerus 17.0426 -12.7214 92.441
lradius 36.9535
lwrist -3.94959
lhand -17.8128 31.3959
lfingers 7.12502
lthumb 8.45103 61.2068
rfemur -87.8426 -4.305 17.5098
rtibia 55.8186
rfoot -12.0487 -5.07947
rtoes 14.1011
lfemur -49.2412 7.17255 -18.9701
ltibia 64.9296
lfoot -11.9858 0.0808232
ltoes -21.0537
249
root 9.92166 16.9933 -2.84175 233.535 -53.8266 -185.172
lowerback 38.551 1.29412 10.9247
upperback 7.27843 5.21566 9.37164
thorax -10.61 1.32195 2.47218
lowerneck -16.0015 -5.83707 -8.97827
upperneck -18.651 -7.14467 11.3469
head -2.31244 -4.22316 4.83472
rclavicle 0 -8.41853e-014
rhumerus 18.4138 -11.8192 -71.9601
rradius 36.973
rwrist -30.4559
rhand 7.69557 -34.7687
rfingers 7.12502
rthumb 32.9375 -61.782
lclavicle 0 -8.41853e-014
lhumerus 15.4812 -12.3155 92.2577
lradius 37.0972
lwrist -4.66821
lhand -17.7562 30.9996
lfingers 7.12502
lthumb 8.50558 60.8083
rfemur -86.4824 -4.24508 17.2666
rtibia 54.9985
rfoot -12.2463 -5.29589
rtoes 13.3468
lfemur -49.8836 7.21212 -18.9311
ltibia 64.8292
lfoot -12.1968 0.364074
ltoes -20.9579
250
root 9.7891 17.0611 -2.87726 233.058 -53.9669 -185.002
lowerback 38.2956 1.19492 11.0267
upperback 7.23912 5.10774 9.36685
thorax -10.5529 1.27835 2.46057
lowerneck -15.9664 -5.6971 -8.90252
upperneck -18.8466 -7.00761 11.1353
head -2.40583 -4.16807 4.77343
rclavicle 3.81667e-014 6.55989e-014
rhumerus 15.9972 -12.2948 -71.6673
rradius 36.6209
rwrist -29.9977
rhand 7.38458 -35.1469
rfingers 7.12502
rthumb 32.6417 -62.2221
lclavicle 3.81667e-014 6.55989e-014
lhumerus 13.8967 -11.953 92.0731
lradius 37.2846
lwrist -5.33164
lhand -17.6772 30.5809
lfingers 7.12502
lthumb 8.58181 60.3865
rfemur -85.0901 -4.18654 17.0166
rtibia 54.1807
rfoot -12.4382 -5.55648
rtoes 12.5726
lfemur -50.5128 7.24741 -18.8941
ltibia 64.6784
lfoot -12.3973 0.626184
ltoes -20.8764
251
root 9.65652 17.1266 -2.91195 232.568 -54.1282 -184.854
lowerback 38.0225 1.09205 11.141
upperback 7.19712 4.99799 9.36552
thorax -10.4912 1.23406 2.44697
lowerneck -15.9347 -5.55804 -8.82627
upperneck -19.044 -6.87287 10.9197
head -2.49903 -4.1138 4.71039
rclavicle 3.18055e-014 1.17084e-013
rhumerus 13.5732 -12.8275 -71.3349
rradius 36.2334
rwrist -29.5131
rhand 7.0695 -35.4727
rfingers 7.12502
rthumb 32.3418 -62.6095
lclavicle 3.18055e-014 1.17084e-013
lhumerus 12.2883 -11.6278 91.8879
lradius 37.5163
lwrist -5.94076
lhand -17.5821 30.142
lfingers 7.12502
lthumb 8.67366 59.9438
rfemur -83.6673 -4.12694 16.7595
rtibia 53.3682
rfoot -12.6245 -5.863
rtoes 11.7785
lfemur -51.1278 7.27848 -18.859
ltibia 64.4743
lfoot -12.5872 0.868134
ltoes -20.8187
252
root 9.52373 17.1898 -2.94589 232.064 -54.3105 -184.726
lowerback 37.7319 0.986313 11.2693
upperback 7.15359 4.88737 9.36717
thorax -10.4233 1.18946 2.42959
lowerneck -15.9058 -5.4212 -8.74963
upperneck -19.2434 -6.74193 10.702
head -2.59185 -4.06111 4.64613
rclavicle 6.99722e-014 3.35946e-014
rhumerus 11.1437 -13.4174 -70.9567
rradius 35.8173
rwrist -29.002
rhand 6.75441 -35.7452
rfingers 7.12502
rthumb 32.0419 -62.9427
lclavicle 6.99722e-014 3.35946e-014
lhumerus 10.6593 -11.3383 91.704
lradius 37.7905
lwrist -6.49191
lhand -17.4638 29.6835
lfingers 7.12502
lthumb 8.78776 59.4806
rfemur -82.2142 -4.06503 16.4986
rtibia 52.563
rfoot -12.8045 -6.21445
rtoes 10.9698
lfemur -51.7254 7.30519 -18.8241
ltibia 64.2125
lfoot -12.7654 1.09025
ltoes -20.7727
253
root 9.39057 17.2506 -2.97916 231.543 -54.5124 -184.617
lowerback 37.4267 0.879106 11.4106
upperback 7.10826 4.77739 9.37138
thorax -10.3505 1.14516 2.40784
lowerneck -15.8788 -5.2874 -8.67242
upperneck -19.4428 -6.61575 10.4824
head -2.68376 -4.01028 4.58058
rclavicle 4.13472e-014 -8.15017e-015
rhumerus 8.71018 -14.0624 -70.5264
rradius 35.377
rwrist -28.4661
rhand 6.44772 -35.9659
rfingers 7.12502
rthumb 31.7498 -63.2217
lclavicle 4.13472e-014 -8.15017e-015
lhumerus 9.01107 -11.0809 91.5261
lradius 38.1025
lwrist -6.99088
lhand -17.3433 29.2079
lfingers 7.12502
lthumb 8.90405 59
rfemur -80.7307 -3.99825 16.2342
rtibia 51.7662
rfoot -12.9775 -6.61065
rtoes 10.153
lfemur -52.302 7.32762 -18.7902
ltibia 63.8877
lfoot -12.929 1.29649
ltoes -20.7426
254
root 9.25692 17.309 -3.01179 231.009 -54.7371 -184.526
lowerback 37.1042 0.768222 11.5663
upperback 7.06179 4.66509 9.37886
thorax -10.2709 1.09988 2.38291
lowerneck -15.8601 -5.15681 -8.59617
upperneck -19.6366 -6.49414 10.2608
head -2.77219 -3.96093 4.51362
rclavicle 6.04305e-014 3.53837e-014
rhumerus 6.27686 -14.7507 -70.0398
rradius 34.9192
rwrist -27.9141
rhand 6.14729 -36.1375
rfingers 7.12502
rthumb 31.4637 -63.4495
lclavicle 6.04305e-014 3.53837e-014
lhumerus 7.34622 -10.8443 91.3558
lradius 38.4506
lwrist -7.44438
lhand -17.2059 28.7179
lfingers 7.12502
lthumb 9.03662 58.5044
rfemur -79.2201 -3.92812 15.9709
rtibia 50.9801
rfoot -13.1442 -7.05024
rtoes 9.33395
lfemur -52.8588 7.34293 -18.7547
ltibia 63.4976
lfoot -13.075 1.48924
ltoes -20.7231
255
root 9.12276 17.3648 -3.04388 230.462 -54.9833 -184.452
lowerback 36.7643 0.655287 11.7345
upperback 7.0133 4.55175 9.38883
thorax -10.1855 1.05428 2.35436
lowerneck -15.8453 -5.02962 -8.5208
upperneck -19.8257 -6.37712 10.0389
head -2.85787 -3.91305 4.44588
rclavicle -4.13472e-014 -2.00773e-014
rhumerus 3.84349 -15.477 -69.492
rradius 34.4488
rwrist -27.354
rhand 5.85809 -36.263
rfingers 7.12502
rthumb 31.1881 -63.6285
lclavicle -4.13472e-014 -2.00773e-014
lhumerus 5.66531 -10.6284 91.1924
lradius 38.833
lwrist -7.84773
lhand -17.0533 28.2151
lfingers 7.12502
lthumb 9.18393 57.9951
rfemur -77.6855 -3.8525 15.709
rtibia 50.2071
rfoot -13.3049 -7.53503
rtoes 8.51886
lfemur -53.3956 7.35106 -18.7182
ltibia 63.0384
lfoot -13.1996 1.67256
ltoes -20.706
256
root 8.98791 17.4181 -3.07552 229.904 -55.2503 -184.396
lowerback 36.4091 0.540325 11.914
upperback 6.9632 4.43689 9.40151
thorax -10.0948 1.0081 2.32317
lowerneck -15.8345 -4.90682 -8.44855
upperneck -20.0078 -6.26548 9.81696
head -2.93995 -3.86676 4.37779
rclavicle -1.27222e-014 3.37934e-014
rhumerus 1.41428 -16.2326 -68.8805
rradius 33.9699
rwrist -26.7935
rhand 5.57263 -36.3565
rfingers 7.12502
rthumb 30.916 -63.7739
lclavicle -1.27222e-014 3.37934e-014
lhumerus 3.97305 -10.4234 91.0389
lradius 39.2446
lwrist -8.20481
lhand -16.8868 27.7015
lfingers 7.12502
lthumb 9.34457 57.4743
rfemur -76.126 -3.77118 15.4496
rtibia 49.4477
rfoot -13.4591 -8.06411
rtoes 7.71319
lfemur -53.9079 7.35071 -18.6813
ltibia 62.5057
lfoot -13.3025 1.85129
ltoes -20.7048
257
root 8.8523 17.4688 -3.10678 229.337 -55.5379 -184.358
lowerback 36.0368 0.425524 12.1037
upperback 6.91045 4.32264 9.41633
thorax -9.99913 0.962416 2.28841
lowerneck -15.8281 -4.78948 -8.37613
upperneck -20.1803 -6.16097 9.5937
head -3.01766 -3.82292 4.30817
rclavicle 3.49861e-014 9.89948e-014
rhumerus -1.01123 -17.0132 -68.2028
rradius 33.4872
rwrist -26.2387
rhand 5.28878 -36.4246
rfingers 7.12502
rthumb 30.6454 -63.8931
lclavicle 3.49861e-014 9.89948e-014
lhumerus 2.27194 -10.2293 90.8952
lradius 39.6821
lwrist -8.51559
lhand -16.705 27.181
lfingers 7.12502
lthumb 9.52001 56.9459
rfemur -74.547 -3.68357 15.1956
rtibia 48.7046
rfoot -13.6052 -8.63738
rtoes 6.91053
lfemur -54.3974 7.34119 -18.6444
ltibia 61.8976
lfoot -13.3863 2.02969
ltoes -20.7141
258
root 8.71569 17.5169 -3.13775 228.758 -55.845 -184.334
lowerback 35.6509 0.310374 12.303
upperback 6.85561 4.20824 9.43266
thorax -9.8991 0.916779 2.24989
lowerneck -15.8253 -4.67703 -8.30475
upperneck -20.3427 -6.06243 9.36998
head -3.09089 -3.78084 4.23757
rclavicle 6.99722e-014 -2.94201e-014
rhumerus -3.42914 -17.8094 -67.4594
rradius 33.004
rwrist -25.6979
rhand 4.99904 -36.474
rfingers 7.12502
rthumb 30.3691 -63.9938
lclavicle 6.99722e-014 -2.94201e-014
lhumerus 0.565392 -10.0294 90.7653
lradius 40.1408
lwrist -8.79054
lhand -16.5065 26.652
lfingers 7.12502
lthumb 9.7115 56.4081
rfemur -72.9458 -3.58945 14.9494
rtibia 47.9777
rfoot -13.7424 -9.2521
rtoes 6.11362
lfemur -54.8571 7.32138 -18.6072
ltibia 61.2094
lfoot -13.4519 2.20948
ltoes -20.7326
259
root 8.57797 17.5624 -3.16848 228.169 -56.1729 -184.325
lowerback 35.2508 0.194792 12.5123
upperback 6.79816 4.09347 9.45111
thorax -9.79501 0.871081 2.20825
lowerneck -15.8268 -4.57027 -8.23607
upperneck -20.4916 -5.97039 9.1461
head -3.15848 -3.74051 4.16623
rclavicle 6.67916e-014 6.0033e-014
rhumerus -5.83627 -18.6156 -66.6505
rradius 32.5212
rwrist -25.1684
rhand 4.71237 -36.5131
rfingers 7.12502
rthumb 30.0956 -64.083
lclavicle 6.67916e-014 6.0033e-014
lhumerus -1.14326 -9.82958 90.6434
lradius 40.6184
lwrist -9.01762
lhand -16.2931 26.1245
lfingers 7.12502
lthumb 9.91736 55.8709
rfemur -71.3252 -3.48834 14.713
rtibia 47.2692
rfoot -13.8707 -9.90806
rtoes 5.33107
lfemur -55.2869 7.29043 -18.5696
ltibia 60.4397
lfoot -13.499 2.39219
ltoes -20.7528
